<?xml version="1.0" standalone="no"?><!DOCTYPE svg PUBLIC "-//W3C//DTD SVG 1.1//EN" "http://www.w3.org/Graphics/SVG/1.1/DTD/svg11.dtd"><svg t="1625563079899" class="icon" viewBox="0 0 1024 1024" version="1.1" xmlns="http://www.w3.org/2000/svg" p-id="24213" xmlns:xlink="http://www.w3.org/1999/xlink" width="32" height="32"><defs><style type="text/css"></style></defs><path d="M218.843 208.468c-4.55 2.434-7.941 5.825-10.375 10.375-3.3 6.171-4.468 12.218-4.468 32.074v522.166c0 19.856 1.168 25.903 4.468 32.074 2.434 4.55 5.825 7.941 10.375 10.375 6.171 3.3 12.218 4.468 32.074 4.468h522.166c19.856 0 25.903-1.168 32.074-4.468 4.55-2.434 7.941-5.825 10.375-10.375 3.3-6.171 4.468-12.218 4.468-32.074V357.176c0-12.479-0.295-16.284-1.164-20.053-0.62-2.694-1.514-4.85-2.98-7.195-2.05-3.279-4.533-6.178-13.357-15.002L709.074 221.5c-8.824-8.824-11.723-11.307-15.002-13.358-2.344-1.465-4.5-2.359-7.195-2.98-3.769-0.868-7.574-1.163-20.053-1.163H250.917c-19.856 0-25.903 1.168-32.074 4.468zM250.917 144h415.907c16.624 0 24.466 0.608 33.529 2.696 9.186 2.117 17.54 5.578 25.533 10.576 7.885 4.932 13.86 10.047 25.615 21.802l93.425 93.425c11.755 11.756 16.87 17.73 21.802 25.615 4.998 7.993 8.459 16.347 10.576 25.533 2.088 9.063 2.696 16.905 2.696 33.53v415.906c0 28.914-2.975 44.318-11.56 60.37-8.025 15.006-19.98 26.962-34.987 34.987-16.052 8.585-31.456 11.56-60.37 11.56H250.917c-28.914 0-44.318-2.975-60.37-11.56-15.006-8.025-26.962-19.98-34.987-34.987-8.585-16.052-11.56-31.456-11.56-60.37V250.917c0-28.914 2.975-44.318 11.56-60.37 8.025-15.006 19.98-26.962 34.987-34.987 16.052-8.585 31.456-11.56 60.37-11.56zM674 203.475h60v199.686c0 30.316-3.854 46.832-14.731 63.661-9.743 15.074-23.834 26.734-41.15 34.397C659.975 509.25 642.757 512 608.723 512H415.277c-34.034 0-51.252-2.751-69.396-10.78-17.316-7.664-31.407-19.324-41.15-34.398C293.854 449.992 290 433.477 290 403.161V203.88h60v199.28c0 11.255 0.63 18.6 1.75 23.393 0.7 3.004 1.507 4.814 3.373 7.7 3.212 4.971 8.132 9.042 15.04 12.099 9.385 4.153 18.738 5.648 45.114 5.648h193.446c26.376 0 35.73-1.495 45.115-5.648 6.907-3.057 11.827-7.128 15.04-12.098 1.865-2.887 2.672-4.697 3.373-7.7 1.118-4.794 1.749-12.139 1.749-23.393V203.475z" p-id="24214" fill="#515151"></path></svg>